<?xml version="1.0" encoding="iso-8859-1"?>
<!-- Generator: Adobe Illustrator 19.0.0, SVG Export Plug-In . SVG Version: 6.00 Build 0)  -->
<svg version="1.1" id="Layer_1" xmlns="http://www.w3.org/2000/svg" x="0px" y="0px"
     viewBox="0 0 512 512" style="enable-background:new 0 0 512 512;" xml:space="preserve">
<path style="fill:#EFF2FA;" d="M381.863,503H131.137C116.702,503,105,491.299,105,476.863V35.137C105,20.702,116.702,9,131.137,9
	h250.727C396.298,9,408,20.702,408,35.137v441.727C408,491.299,396.298,503,381.863,503z"/>
<g>
	<path style="fill:#FF6464;" d="M186,237.645c0-21.324,17.187-38.61,38.387-38.61c10.508,0,20.021,4.252,26.95,11.135
		c2.569,2.552,6.756,2.552,9.325,0c6.929-6.883,16.442-11.135,26.95-11.135c21.201,0,38.387,17.286,38.387,38.61l0,0
		c0,39.877-51.349,76.153-66.088,85.744c-2.383,1.551-5.441,1.551-7.824,0C237.349,313.797,186,277.521,186,237.645"/>
	<path style="fill:#FF6464;" d="M136,58.271c0-10.966,8.839-19.857,19.742-19.857c5.404,0,10.297,2.187,13.86,5.727
		c1.321,1.313,3.475,1.313,4.796,0c3.563-3.54,8.456-5.727,13.86-5.727c10.903,0,19.742,8.891,19.742,19.857l0,0
		c0,20.508-26.408,39.164-33.988,44.097c-1.226,0.798-2.798,0.798-4.023,0C162.408,97.435,136,78.778,136,58.271"/>
	<path style="fill:#FF6464;" d="M376,452.144C376,463.11,367.161,472,356.258,472c-5.404,0-10.297-2.187-13.86-5.727
		c-1.321-1.313-3.475-1.313-4.796,0c-3.563,3.54-8.456,5.727-13.86,5.727C312.839,472,304,463.11,304,452.144l0,0
		c0-20.508,26.408-39.164,33.988-44.097c1.226-0.797,2.798-0.797,4.023,0C349.592,412.979,376,431.635,376,452.144"/>
</g>
<g>
	<path style="fill:#2D2B29;" d="M176.048,239.544c0,51.788,72.907,93.661,76.011,95.418c1.223,0.692,2.582,1.038,3.941,1.038
		c1.359,0,2.719-0.346,3.941-1.038c3.104-1.757,76.011-43.63,76.011-95.418c0-26.231-21.29-47.572-47.458-47.572
		c-12.191,0-23.777,4.705-32.495,12.921c-8.717-8.216-20.304-12.921-32.495-12.921C197.337,191.972,176.048,213.313,176.048,239.544
		z M223.505,207.972c10.331,0,20.014,5.113,25.902,13.679c1.492,2.171,3.958,3.468,6.592,3.468c2.634,0,5.1-1.297,6.592-3.468
		c5.889-8.565,15.572-13.679,25.902-13.679c17.346,0,31.458,14.163,31.458,31.572c0,36.435-49.466,70.049-63.956,79.111
		c-14.499-9.051-63.948-42.603-63.948-79.111C192.048,222.135,206.16,207.972,223.505,207.972z"/>
	<path style="fill:#2D2B29;" d="M168.042,110.991c1.223,0.692,2.582,1.038,3.941,1.038s2.719-0.346,3.941-1.038
		c4.099-2.321,40.043-23.472,40.043-51.2c0-15.324-12.441-27.791-27.733-27.791c-5.913,0-11.582,1.893-16.251,5.279
		C167.315,33.893,161.646,32,155.733,32C140.441,32,128,44.467,128,59.791C128,87.519,163.944,108.67,168.042,110.991z M155.733,48
		c3.849,0,7.459,1.909,9.658,5.107c1.493,2.171,3.958,3.468,6.592,3.468s5.1-1.297,6.592-3.468c2.199-3.198,5.81-5.107,9.659-5.107
		c6.47,0,11.733,5.29,11.733,11.791c0,13.707-17.617,28.078-27.978,34.849C161.882,87.991,144,73.422,144,59.791
		C144,53.29,149.264,48,155.733,48z"/>
	<path style="fill:#2D2B29;" d="M343.923,401.066c-2.444-1.383-5.434-1.383-7.878,0C331.946,403.384,296,424.517,296,452.227
		C296,467.541,308.441,480,323.733,480c5.913,0,11.582-1.892,16.25-5.276c4.669,3.384,10.338,5.276,16.251,5.276
		c15.292,0,27.733-12.459,27.733-27.773C383.968,424.517,348.021,403.384,343.923,401.066z M356.235,464
		c-3.851,0-7.462-1.907-9.661-5.103c-1.493-2.169-3.957-3.465-6.59-3.465s-5.098,1.296-6.59,3.465
		c-2.199,3.195-5.81,5.103-9.66,5.103c-6.47,0-11.733-5.281-11.733-11.773c0-13.694,17.625-28.054,27.983-34.816
		c10.365,6.766,27.985,21.124,27.985,34.816C367.968,458.719,362.705,464,356.235,464z"/>
	<path style="fill:#2D2B29;" d="M376,0H136c-22.056,0-40,17.944-40,40v432c0,22.056,17.944,40,40,40h240c22.056,0,40-17.944,40-40
		V40C416,17.944,398.056,0,376,0z M400,472c0,13.233-10.766,24-24,24H136c-13.234,0-24-10.767-24-24V40c0-13.233,10.766-24,24-24
		h240c13.234,0,24,10.767,24,24V472z"/>
	<path style="fill:#2D2B29;" d="M272,456H152V120c0-4.418-3.582-8-8-8s-8,3.582-8,8v344c0,4.418,3.582,8,8,8h128
		c4.418,0,8-3.582,8-8S276.418,456,272,456z"/>
	<path style="fill:#2D2B29;" d="M240,56h120v336c0,4.418,3.582,8,8,8s8-3.582,8-8V48c0-4.418-3.582-8-8-8H240c-4.418,0-8,3.582-8,8
		S235.582,56,240,56z"/>
</g>
</svg>
